<svg xmlns="http://www.w3.org/2000/svg" width="88" height="101" viewBox="0 0 88 101"><g><g><path fill="#cfc0b0" d="M87.617 48.764c.532.878.564 1.97.086 2.88-4.537 8.63-13.415 25.566-13.506 25.737a20.449 20.449 0 0 1-18.17 10.99H31.473L20.358 99.433a2.931 2.931 0 0 1-4.132.002c-.076-.072-7.546-7.486-14.665-14.6a2.935 2.935 0 0 1 0-4.145l17.335-17.33a14.56 14.56 0 0 1 10.363-4.29h34.76A24.755 24.755 0 0 1 85.11 47.35c1.026 0 1.977.535 2.507 1.414zm-18.61 25.898c.075-.143 6.191-11.816 10.869-20.723a18.918 18.918 0 0 0-11.538 9.371l-4.523 8.63a8.769 8.769 0 0 1-7.788 4.71h-19.9a2.931 2.931 0 1 1 0-5.86h19.9a2.924 2.924 0 0 0 2.596-1.57l2.25-4.29H29.258a8.73 8.73 0 0 0-6.218 2.574L7.78 82.761c4.155 4.147 8.173 8.144 10.508 10.464l9.908-9.862a2.937 2.937 0 0 1 2.07-.852h25.762a14.608 14.608 0 0 0 12.98-7.85zM27.334 53.21a2.93 2.93 0 0 1-2.932-2.93V14.921a2.93 2.93 0 0 1 2.932-2.93h8.792v-2.93c0-4.848 3.944-8.79 8.792-8.79s8.793 3.942 8.793 8.79v2.93h8.793a2.932 2.932 0 0 1 2.93 2.93v35.357a2.932 2.932 0 0 1-2.93 2.93zM41.988 11.99h5.861v-2.93a2.935 2.935 0 0 0-2.931-2.93 2.934 2.934 0 0 0-2.93 2.93zM30.264 47.35h29.31V17.852H53.71v2.93a2.931 2.931 0 0 1-5.862 0v-2.93h-5.86v2.93a2.932 2.932 0 0 1-5.863 0v-2.93h-5.862z"/></g></g></svg>