<svg xmlns="http://www.w3.org/2000/svg" width="94" height="100" viewBox="0 0 94 100"><g><g><path fill="#cfc0b0" d="M5.99 70.96c0-.046-.004-.094-.003-.14C2.201 63.245.127 53.907.127 44.335c0-11.528 2.904-22.454 8.178-30.765C13.759 4.976 21.093.177 28.995.011a3 3 0 0 1 .298-.006l.128-.002c8.066 0 15.565 4.819 21.118 13.568 4.911 7.743 7.768 17.755 8.135 28.409 8.193 1.087 15.746 3.696 21.839 7.613C90.073 55.74 93.87 63.57 93.87 70.701c0 8.074-4.744 15.57-13.358 21.108-8.213 5.28-19.075 8.187-30.585 8.187-11.51 0-22.372-2.907-30.585-8.187C10.822 86.33 6.09 78.935 5.99 70.96zm71.355 15.92c5.221-3.357 8.66-7.477 10.015-11.897a54.169 54.169 0 0 1-40.164-1.01c-11.113-4.763-23.817-5.147-35.19-1.13.79 5.224 4.449 10.144 10.506 14.037 7.28 4.68 17.016 7.258 27.416 7.258 10.4 0 20.136-2.578 27.417-7.258zm10.5-18.352c-.799-5.211-4.456-10.12-10.5-14.006-7.28-4.68-17.017-7.257-27.417-7.257-9.455 0-19.521 2.182-27.416 7.258-5.264 3.383-8.716 7.543-10.048 12.003a53.906 53.906 0 0 1 16.198-2.318 53.921 53.921 0 0 1 20.842 4.38c11.647 4.992 24.574 5.235 36.399.687zM45.59 16.709C42.226 11.406 38.112 7.912 33.71 6.53c4.352 11.783 4.477 24.95.422 36.801 4.973-1.262 10.311-1.924 15.797-1.924.96 0 1.915.022 2.864.061-.43-9.35-2.947-18.054-7.2-24.759zm-32.339 0c-4.685 7.386-7.267 17.197-7.267 27.627 0 5.82.834 11.52 2.405 16.685 2.217-4.294 5.924-8.194 10.953-11.428 2.328-1.496 4.87-2.802 7.58-3.905.125-.31.253-.621.384-.928 4.972-11.595 5.22-25.005.688-36.79l-.745-1.937c-5.195.813-10.1 4.532-13.998 10.676z"/></g></g></svg>