<svg xmlns="http://www.w3.org/2000/svg" width="76" height="100" viewBox="0 0 76 100"><g><g><path fill="#cfc0b0" d="M61.434.003c4.846 0 8.79 3.942 8.79 8.788v11.445A116.903 116.903 0 0 1 76.08 56.81v40.257a2.93 2.93 0 0 1-2.928 2.93H2.844a2.93 2.93 0 0 1-2.93-2.93V56.81c0-12.45 1.974-24.751 5.86-36.573V8.791c0-4.846 3.943-8.788 8.788-8.788zm2.93 8.788a2.933 2.933 0 0 0-2.93-2.93H46.786v11.914h17.578zM35.069 25.35l2.93 2.929 2.929-2.93V5.862h-5.86zm-23.435-7.575H29.21V5.86H14.562a2.933 2.933 0 0 0-2.928 2.93zm-.798 5.859a111.02 111.02 0 0 0-5.062 33.175v25.415h64.45V56.809a111.02 111.02 0 0 0-5.064-33.175H46.786v2.929c0 .777-.307 1.522-.858 2.071l-5.859 5.859c-.57.572-1.32.858-2.07.858-.75 0-1.5-.286-2.072-.858l-5.859-5.859a2.927 2.927 0 0 1-.857-2.071v-2.929zm59.388 70.504v-6.056H5.774v6.056zM27.64 66.215c-3.724-3.724-6.269-8.238-7.164-12.712-.98-4.904.092-9.217 3.021-12.145 2.928-2.928 7.24-4.001 12.145-3.02 4.474.895 8.988 3.439 12.713 7.164 3.724 3.724 6.268 8.238 7.163 12.711.98 4.904-.093 9.218-3.02 12.146-2.22 2.22-5.238 3.373-8.705 3.373-4.89 0-10.952-2.316-16.153-7.517zm4.142-4.143c4.41 4.41 10.04 6.525 13.884 5.598l-19.48-19.48c-.929 3.844 1.187 9.472 5.596 13.882zm12.429-12.428c-3.445-3.446-9.22-6.724-13.882-5.598l19.479 19.481c.929-3.845-1.185-9.473-5.597-13.883z"/></g></g></svg>