<svg xmlns="http://www.w3.org/2000/svg" width="40" height="40" viewBox="0 0 40 40"><defs><clipPath id="b8f8a"><path fill="#fff" d="M20.086-.002c11.047 0 20.001 8.955 20.001 20 0 11.046-8.954 20.001-20 20.001S.085 31.044.085 20c0-11.046 8.955-20 20-20z"/></clipPath></defs><g><g><path fill="#efe6d6" d="M20.086-.002c11.047 0 20.001 8.955 20.001 20 0 11.046-8.954 20.001-20 20.001S.085 31.044.085 20c0-11.046 8.955-20 20-20z"/><path fill="none" stroke="#cfc0b0" stroke-miterlimit="20" stroke-width="2" d="M20.086-.002c11.047 0 20.001 8.955 20.001 20 0 11.046-8.954 20.001-20 20.001S.085 31.044.085 20c0-11.046 8.955-20 20-20z" clip-path="url(&quot;#b8f8a&quot;)"/></g><g><path fill="#9c897b" d="M29.498 14.75a7.716 7.716 0 0 1-2.217.609 3.875 3.875 0 0 0 1.697-2.137 7.733 7.733 0 0 1-2.451.937 3.86 3.86 0 0 0-2.82-1.22 3.862 3.862 0 0 0-3.761 4.742 10.968 10.968 0 0 1-7.961-4.035 3.838 3.838 0 0 0-.523 1.942c0 1.34.681 2.521 1.719 3.213a3.846 3.846 0 0 1-1.75-.483l-.001.049a3.866 3.866 0 0 0 3.098 3.786 3.848 3.848 0 0 1-1.743.066 3.865 3.865 0 0 0 3.606 2.682 7.744 7.744 0 0 1-4.797 1.653c-.31 0-.618-.018-.92-.054a10.934 10.934 0 0 0 5.92 1.735c7.104 0 10.99-5.883 10.99-10.987 0-.167-.006-.333-.013-.499a7.826 7.826 0 0 0 1.927-2z"/></g></g></svg>