<svg xmlns="http://www.w3.org/2000/svg" width="114" height="100" viewBox="0 0 114 100"><g><g><path fill="#cfc0b0" d="M16.78 73.33a3.332 3.332 0 0 1-3.332-3.332V43.334A3.332 3.332 0 0 1 16.78 40h39.997a3.333 3.333 0 0 1 3.332 3.334v26.664a3.333 3.333 0 0 1-3.332 3.332zm36.664-6.666v-7.239a9.953 9.953 0 0 1-3.333.573 9.956 9.956 0 0 1-6.667-2.554 9.963 9.963 0 0 1-6.666 2.554 9.956 9.956 0 0 1-6.666-2.554 9.958 9.958 0 0 1-6.666 2.554 9.953 9.953 0 0 1-3.333-.573v7.239zm0-19.998h-6.667V50a3.338 3.338 0 0 0 3.334 3.333A3.338 3.338 0 0 0 53.444 50zm-13.333 0h-6.665V50a3.337 3.337 0 0 0 3.332 3.333A3.338 3.338 0 0 0 40.11 50zM20.113 50a3.338 3.338 0 0 0 3.333 3.333A3.337 3.337 0 0 0 26.778 50v-3.333h-6.665zm83.77 10c5.513 0 10 4.485 10 9.999v13.331c0 5.513-4.487 10-10 10h-3.907c-1.375 3.878-5.08 6.666-9.426 6.666-4.344 0-8.05-2.788-9.424-6.666H52.87c-1.377 3.878-5.081 6.666-9.427 6.666a9.96 9.96 0 0 1-6.666-2.555 9.96 9.96 0 0 1-6.666 2.555c-4.345 0-8.05-2.788-9.426-6.666H10.114c-5.513 0-9.999-4.487-9.999-10V36.668c0-5.514 4.486-10 9.999-10h13.34a16.582 16.582 0 0 1-3.34-9.999V3.337A3.333 3.333 0 0 1 23.445.004h33.33c5.513 0 9.998 4.486 9.998 9.999 0 5.514-4.485 10-9.997 10h-3.668a16.618 16.618 0 0 1-3.007 6.665h13.34c5.513 0 10 4.486 10 10V40h12.305a9.988 9.988 0 0 1 9.486 6.837l4.386 13.161zM73.442 46.665v13.332h19.15l-3.684-11.052a3.33 3.33 0 0 0-3.161-2.28zM60.109 10.003a3.337 3.337 0 0 0-3.332-3.333h-3.333v6.667h3.333a3.337 3.337 0 0 0 3.332-3.334zm-33.33 6.666c0 5.513 4.486 10 9.999 10 5.513 0 10-4.487 10-10v-10h-20zM6.781 83.33a3.337 3.337 0 0 0 3.332 3.333h10.572c1.376-3.879 5.081-6.666 9.426-6.666a9.96 9.96 0 0 1 6.666 2.555 9.963 9.963 0 0 1 6.666-2.555c4.346 0 8.05 2.787 9.427 6.666h13.903V36.668a3.337 3.337 0 0 0-3.332-3.334H10.114a3.337 3.337 0 0 0-3.332 3.334zm23.33 10a3.338 3.338 0 0 0 3.334-3.334 3.338 3.338 0 0 0-3.334-3.333 3.338 3.338 0 0 0-3.334 3.333 3.338 3.338 0 0 0 3.334 3.334zm13.332 0a3.337 3.337 0 0 0 3.333-3.334 3.337 3.337 0 0 0-3.333-3.333 3.337 3.337 0 0 0-3.333 3.333 3.338 3.338 0 0 0 3.333 3.334zm47.106 0a3.338 3.338 0 0 0 3.334-3.334 3.338 3.338 0 0 0-3.334-3.333 3.337 3.337 0 0 0-3.332 3.333 3.337 3.337 0 0 0 3.332 3.334zm16.666-23.331a3.337 3.337 0 0 0-3.333-3.334H73.442v19.998h7.683c1.376-3.879 5.08-6.666 9.425-6.666 4.345 0 8.05 2.787 9.426 6.666h3.907a3.338 3.338 0 0 0 3.333-3.333z"/></g></g></svg>