<svg xmlns="http://www.w3.org/2000/svg" width="100" height="100" viewBox="0 0 100 100"><g><g><path fill="#cfc0b0" d="M64.841 61.913V32.617c0-.777.31-1.522.858-2.07l5.858-5.86a2.93 2.93 0 0 1 4.144 0l5.859 5.86c.55.548.858 1.293.858 2.07v29.296a2.93 2.93 0 0 1-2.93 2.93H67.77a2.93 2.93 0 0 1-2.93-2.93zm5.859-2.93h5.859V33.83l-2.929-2.93-2.93 2.93zm-53.122 2.93V50.194c0-.777.309-1.522.859-2.07l5.858-5.86a2.93 2.93 0 0 1 4.144 0l5.858 5.86c.55.548.859 1.293.859 2.07v11.719a2.93 2.93 0 0 1-2.93 2.93H20.51a2.93 2.93 0 0 1-2.93-2.93zm5.86-2.93h5.859v-7.575l-2.93-2.93-2.929 2.93zm17.772 2.93V38.476c0-.777.309-1.522.857-2.07l5.86-5.86a2.928 2.928 0 0 1 4.142 0l5.86 5.86c.55.548.857 1.293.857 2.07v23.437a2.93 2.93 0 0 1-2.929 2.93H44.14a2.93 2.93 0 0 1-2.93-2.93zm5.859-2.93h5.859V39.69l-2.93-2.93-2.93 2.93zM99.995 8.79v5.86a2.93 2.93 0 0 1-2.93 2.928h-2.928v50.192c0 4.847-3.943 8.79-8.79 8.79h-32.42v6.362c3.41 1.21 5.86 4.466 5.86 8.285 0 4.846-3.942 8.788-8.789 8.788-4.845 0-8.788-3.942-8.788-8.788 0-3.82 2.45-7.076 5.859-8.285V76.56h-32.42c-4.846 0-8.788-3.942-8.788-8.789V17.58H2.93a2.93 2.93 0 0 1-2.93-2.929V8.79C.002 3.946 3.946.004 8.79.004h82.417c4.846 0 8.788 3.942 8.788 8.788zM52.928 91.208a2.932 2.932 0 0 0-2.93-2.93 2.933 2.933 0 0 0-2.93 2.93 2.933 2.933 0 0 0 2.93 2.93 2.932 2.932 0 0 0 2.93-2.93zm35.35-73.629H11.72v50.192a2.933 2.933 0 0 0 2.93 2.93h70.699a2.933 2.933 0 0 0 2.93-2.93zm5.859-8.788a2.933 2.933 0 0 0-2.93-2.93H8.79a2.933 2.933 0 0 0-2.93 2.93v2.929h88.277z"/></g></g></svg>