<svg xmlns="http://www.w3.org/2000/svg" width="100" height="100" viewBox="0 0 100 100"><g><g><path fill="#cfc0b0" d="M26.563 41.015c-8.077 0-14.647-6.57-14.647-14.647V14.65a2.93 2.93 0 0 1 2.93-2.93h29.293c4.847 0 8.79 3.943 8.79 8.789 0 4.845-3.943 8.789-8.79 8.789h-3.224c-1.36 6.677-7.279 11.717-14.352 11.717zM47.068 20.51a2.933 2.933 0 0 0-2.929-2.93h-2.93v5.86h2.93a2.933 2.933 0 0 0 2.93-2.93zm-29.295 5.859c0 4.846 3.943 8.788 8.79 8.788 4.845 0 8.788-3.942 8.788-8.788V17.58H17.773zm-2.928 26.756a2.929 2.929 0 1 1 0-5.86h35.153a2.93 2.93 0 1 1 0 5.86zm0 11.718a2.93 2.93 0 1 1 0-5.859h35.153a2.93 2.93 0 1 1 0 5.859zM38.28 70.7a2.93 2.93 0 1 1 0 5.86H14.845a2.93 2.93 0 1 1 0-5.86zm55.857 17.577v5.858h2.929a2.93 2.93 0 1 1 0 5.86H49.998a2.93 2.93 0 0 1 0-5.86h2.93v-5.858H2.931A2.93 2.93 0 0 1 0 85.348V2.932a2.93 2.93 0 0 1 2.93-2.93h58.785a2.93 2.93 0 0 1 2.93 2.93v57.56a26.133 26.133 0 0 1 5.859-1.345v-3.093a2.93 2.93 0 0 1 5.86 0v3.09c13.271 1.453 23.631 12.65 23.631 26.204a2.93 2.93 0 0 1-2.93 2.93zm-.212-5.859c-1.439-9.924-10.079-17.577-20.49-17.577-10.314 0-18.873 7.653-20.299 17.577zm-88.064 0h41.372c.878-7.902 5.26-14.76 11.554-18.982V5.86H5.861zm82.416 5.859h-29.49v5.858h29.49z"/></g></g></svg>