<svg xmlns="http://www.w3.org/2000/svg" width="110" height="71" viewBox="0 0 110 71"><g><g><path fill="#cfc0b0" d="M-.012 42.028h5.135l.302.05h.251l.301.05h.253l.3.1.252.05.25.05.252.05.25.1.252.101.251.102.251.1.202.1.201.15.251.1.201.152.2.152.203.15.201.203.202.15.201.202.152.201.201.201.15.202.152.201.201.252.15.25.154.202.1.251.152.252.151.302c.865 1.853 1.308 4.026 1.308 6.443 0 3.462-.553 6.108-1.66 7.9-.987 1.612-2.245 2.416-3.775 2.416-1.068 0-2.063-.47-2.97-1.257v8.155H-.011zm4.378 12.48c0 1.349.222 2.365.604 3.07.381.725.845 1.107 1.409 1.107.583 0 1.105-.403 1.508-1.208.422-.805.604-1.983.604-3.472 0-2.76-.312-4.751-.957-6.04C6.892 46.676 5.985 46 4.818 46h-.452zm105.643 15.644h-4.63s-.622-17.535-.662-18.562c-.665.704-6.48 6.866-6.601 7.006v11.556h-4.528V42.007h4.528v9.905c.724-.765 10.404-10.871 10.404-10.871l.382-.381zM87.184 40.66l1.107 29.497h-4.608s-.625-17.536-.664-18.562c-.664.704-6.482 6.866-6.603 7.006v11.556h-4.549V42.012h4.55v9.905l.041-.061.061-.04.062-.08.08-.082.08-.08.101-.101.12-.121.12-.121.122-.141.14-.143.141-.16.162-.161.161-.183.18-.18.362-.382.384-.402.421-.424.422-.464.444-.462.46-.464.463-.483.946-.985.464-.505.462-.483.464-.462.442-.462.422-.443.402-.424.382-.403.362-.383.18-.18.162-.16.141-.162.14-.14.142-.14.12-.142.121-.12.1-.102.102-.102.08-.08.08-.08.062-.06.04-.062.04-.019.022-.04zm-19.99 25.408h.22V71h-.22c-4.347 0-7.79-1.45-10.284-4.269-2.356-2.678-3.563-6.241-3.563-10.548 0-4.47 1.107-8.033 3.28-10.59 2.396-2.838 5.918-4.248 10.507-4.248h.221v4.913h-.221c-2.94 0-5.193.945-6.743 2.838-1.41 1.731-2.134 4.088-2.134 7.046l.021.524.021.523.04.504.062.504.08.483.1.484.122.442.12.462.141.424.183.422.18.403.202.402.2.382.243.383.24.342.283.341c1.59 1.933 3.845 2.9 6.7 2.901zM24.09 41.32h.5l.502.1h.202l.201.05.25.05.203.05.25.1.202.051.2.102.202.1.202.1.2.1.203.1.2.102.202.151.15.151.202.152.152.151.201.151.152.153.201.2.303.403.15.201.202.202.1.2.203.203.1.25.304.503c1.408 2.637 2.113 6.161 2.113 10.469 0 4.369-.693 7.932-2.062 10.57-1.47 2.819-3.551 4.278-6.19 4.278-2.575 0-4.558-1.379-5.886-4.077-1.309-2.636-1.963-6.25-1.963-10.72 0-4.327.694-7.86 2.062-10.518 1.41-2.698 3.353-4.077 5.787-4.077zm-2.57 7.245c-.642 1.872-.955 4.35-.955 7.348 0 2.94.313 5.445.955 7.4.625 1.872 1.46 2.817 2.568 2.817h.354l.1-.05h.102l.1-.049.102-.05h.102l.1-.05.05-.05.204-.1.1-.1.1-.05.103-.1.05-.1.098-.05.05-.1.202-.2.051-.1.05-.152.1-.101.05-.152.102-.101.05-.152.1-.151.05-.152.049-.15.05-.152.05-.152.101-.2c.624-1.933.905-4.46.905-7.5 0-3.14-.241-5.577-.804-7.247-.583-1.852-1.531-2.768-2.819-2.768-1.127 0-1.982.925-2.57 2.714zm28.25 17.503h.22V71h-.22c-4.349 0-7.811-1.45-10.286-4.269-2.375-2.678-3.562-6.241-3.562-10.548 0-4.47 1.086-8.033 3.28-10.59 2.374-2.838 5.916-4.248 10.485-4.248h.242v4.913h-.242c-2.938 0-5.193.945-6.72 2.838-1.432 1.731-2.136 4.088-2.136 7.046v.524l.04.523.041.504.06.504.08.483.08.484.122.442.12.462.16.424.162.422.18.403.202.402.222.382.222.383.26.342.143.18.121.161c1.589 1.933 3.843 2.9 6.724 2.901zM16.88.738v28.285h-5.193V5.429h-6.44v23.594H.033V.738zm15.965-.74h.303l.251.05h.555l.25.05.25.05.253.05.251.05.25.101.203.05.25.1.252.103.2.1.252.101.202.101.2.152.202.101.251.152.2.151.203.151.2.152.203.202.15.15.403.403.151.201.202.202.151.25.2.203.304.501.151.252c1.57 2.656 2.416 6.22 2.416 10.568 0 4.37-.815 7.964-2.366 10.62-1.65 2.86-3.985 4.278-6.943 4.278-2.898 0-5.134-1.358-6.64-4.076-1.492-2.658-2.215-6.332-2.215-10.822 0-4.346.764-7.889 2.314-10.568 1.569-2.74 3.783-4.128 6.541-4.128zM30.02 7.445c-.704 1.852-1.057 4.298-1.057 7.297 0 2.92.353 5.396 1.057 7.35l.1.151.05.15.051.152.1.152.052.201.05.101.099.152.049.152.103.1.05.103.101.15.1.102.05.101.102.102.101.1.05.101.102.05.101.1.1.05.102.101.101.05.101.05.102.05.1.05.1.05h.103l.1.05.102.05h.455c1.288 0 2.233-.864 2.917-2.717.704-1.892 1.057-4.4 1.057-7.399 0-3.14-.302-5.547-.906-7.197-.663-1.813-1.659-2.72-3.068-2.72-1.27 0-2.205.877-2.877 2.665zM84.427.738v4.69h-4.389v23.595h-5.212V5.429h-4.327V.739zm-25.342 9.844V.737h5.213v28.285h-5.213v-13.67H55.28c-2.031 0-3.803-.622-5.231-1.851-1.45-1.249-2.194-2.838-2.194-4.69V.737h5.213v7.55c0 .644.181 1.149.583 1.511.546.523 1.431.784 2.598.784zM91.214.752h7.693c2.252 0 4.024.483 5.332 1.51l.201.151.1.152.152.101.304.303.101.102.15.2.103.103.101.2.15.152.104.151.1.201.05.152.102.201.102.152.1.201.1.402.102.202.1.403.05.2.05.202.05.252.05.2v.252l.05.201v.252l.049.25v.755l2.415 20.686h-5.233s-1.448-13.256-1.509-13.84h-6.49c-.019.623-.502 13.84-.502 13.84h-5.183L91.214.755zm4.98 4.683v.351l-.049.102v1.46l-.05.201v2.014l-.05.151v.804h5.787c-.182-1.833-.493-3.14-.957-3.825-.563-.825-1.47-1.258-2.818-1.258z"/></g></g></svg>