<svg xmlns="http://www.w3.org/2000/svg" width="88" height="100" viewBox="0 0 88 100"><g><g><path fill="#cfc0b0" d="M87.94 14.755v35.527c0 24.782-18.226 46.006-42.757 49.511l-.77.11a2.892 2.892 0 0 1-.829 0l-.77-.11C18.291 96.29.054 75.072.054 50.282V14.755a2.93 2.93 0 0 1 2.931-2.93h3.922c13.472 0 24.7-4.244 35.467-11.424a2.926 2.926 0 0 1 3.249 0c10.79 7.196 22.02 11.424 35.466 11.424h3.922a2.93 2.93 0 0 1 2.93 2.93zm-5.858 2.931c-14.412 0-26.892-3.94-38.084-11.326-11.999 7.92-24.64 11.326-38.083 11.326v32.596c0 21.845 16.22 40.637 37.728 43.71l.355.05.356-.05c21.508-3.073 37.728-21.865 37.728-43.71zm-5.859 8.394V50.28c0 18.492-13.553 34.678-31.738 37.76a2.956 2.956 0 0 1-.977 0C25.35 84.974 11.774 68.8 11.774 50.281V26.08a2.93 2.93 0 0 1 2.632-2.916c13.642-1.39 18.222-3.333 28.164-8.886a2.928 2.928 0 0 1 2.857 0l3.116 1.742c11.017 6.155 20.266 6.657 25.047 7.144a2.93 2.93 0 0 1 2.633 2.916zm-5.859 24.2V28.727c-8.564-.872-16.439-2.986-24.677-7.59l-1.69-.943-1.703.95c-8.255 4.611-16.128 6.714-24.662 7.583v21.555c0 15.48 11.3 29.101 26.363 31.895 15.067-2.802 26.37-16.424 26.37-31.895z"/></g></g></svg>