<svg xmlns="http://www.w3.org/2000/svg" width="30" height="34" viewBox="0 0 30 34"><g><g><path fill="#eb936b" d="M29.448 32.78c0 .673-.56 1.219-1.254 1.219H1.802a1.27 1.27 0 0 1-.926-.397 1.202 1.202 0 0 1-.323-.932L2.686 9.538c.058-.63.6-1.111 1.248-1.111h4.385V6.503c0-3.587 2.996-6.505 6.679-6.505 3.682 0 6.68 2.918 6.68 6.505v1.924h4.38c.65 0 1.192.482 1.25 1.111L29.43 32.58c.011.064.017.132.017.2zM10.825 8.426h8.346V6.503c0-2.24-1.873-4.063-4.173-4.063s-4.173 1.823-4.173 4.063zM3.172 31.558H26.82l-1.907-20.69h-3.236v2.182c0 .674-.562 1.22-1.253 1.22-.694 0-1.253-.546-1.253-1.22v-2.182h-8.346v2.182c0 .674-.56 1.22-1.253 1.22-.692 0-1.253-.546-1.253-1.22v-2.182H5.08z"/></g></g></svg>