<svg xmlns="http://www.w3.org/2000/svg" width="100" height="100" viewBox="0 0 100 100"><g><g><path fill="#cfc0b0" d="M99.894 27.165l-5.115 36.55c-.002.025-.007.051-.01.076a8.793 8.793 0 0 1-7.873 7.308c-9.41.852-51.565 4.67-60.125 5.449a2.927 2.927 0 0 1-.265.012 2.933 2.933 0 0 0-2.93 2.93 2.933 2.933 0 0 0 2.93 2.93h64.63a2.93 2.93 0 1 1 0 5.858h-9.291a8.75 8.75 0 0 1 .504 2.93c0 4.846-3.941 8.788-8.787 8.788-4.844 0-8.787-3.942-8.787-8.788 0-1.027.18-2.013.505-2.93H46.504c.324.917.504 1.903.504 2.93 0 4.846-3.942 8.788-8.786 8.788-4.846 0-8.787-3.942-8.787-8.788 0-1.027.178-2.013.504-2.93h-3.433c-4.845 0-8.787-3.942-8.787-8.788 0-3.808 2.434-7.054 5.826-8.273a8.682 8.682 0 0 1-.81-2.496c-.004-.031-.01-.062-.013-.094L14.828 8.28a2.917 2.917 0 0 0-2.885-2.417H2.88a2.929 2.929 0 0 1 0-5.86h9.063c4.327 0 7.973 3.1 8.672 7.37l.014.093 2.14 16.364h74.224a2.93 2.93 0 0 1 2.9 3.336zm-76.36 2.523l.768 5.859h68.504l.82-5.859zm50.25 36.716l2.412-24.998H61.652v26.097zm-17.99 1.63V41.406H41.412l2.375 27.711 12.009-1.083zm-24.123 2.185l6.28-.57-2.419-28.243H25.068l3.455 26.407a2.938 2.938 0 0 0 3.148 2.406zm6.55 18.059a2.933 2.933 0 0 0-2.929 2.93 2.932 2.932 0 0 0 2.93 2.928 2.931 2.931 0 0 0 2.928-2.928 2.932 2.932 0 0 0-2.928-2.93zm35.341 0a2.933 2.933 0 0 0-2.93 2.93 2.932 2.932 0 0 0 2.93 2.928 2.931 2.931 0 0 0 2.929-2.928 2.932 2.932 0 0 0-2.929-2.93zm15.423-25.42l3.001-21.452h-9.907l-2.36 24.46 6.648-.602a2.932 2.932 0 0 0 2.618-2.405z"/></g></g></svg>