<svg xmlns="http://www.w3.org/2000/svg" width="21" height="30" viewBox="0 0 21 30"><g><g><path fill="#cfc0b0" d="M21 10.546c0 1.906-.513 3.776-1.482 5.404l-8.123 13.622a.87.87 0 0 1-.744.427h-.006a.874.874 0 0 1-.744-.415L1.565 16.093a10.56 10.56 0 0 1-1.567-5.547C-.002 4.731 4.708 0 10.498 0S21 4.73 21 10.546zm-1.745 0c0-4.846-3.932-8.8-8.756-8.8-4.825-.001-8.762 3.954-8.762 8.8 0 1.638.462 3.235 1.316 4.62l7.578 12.266 7.385-12.384a8.811 8.811 0 0 0 1.239-4.502zm-3.506 0c0 2.858-2.281 5.273-5.25 5.273-2.933 0-5.25-2.384-5.25-5.273 0-2.907 2.354-5.273 5.25-5.273 2.895 0 5.25 2.366 5.25 5.273zm-1.745 0c0-1.938-1.576-3.527-3.505-3.527-1.93 0-3.513 1.589-3.513 3.527 0 1.944 1.573 3.528 3.513 3.528 1.97 0 3.505-1.613 3.505-3.528z"/></g></g></svg>