<svg xmlns="http://www.w3.org/2000/svg" width="114" height="100" viewBox="0 0 114 100"><g><g><path fill="#cfc0b0" d="M16.78 73.33a3.333 3.333 0 0 1-3.333-3.333V43.334A3.333 3.333 0 0 1 16.78 40h39.996a3.333 3.333 0 0 1 3.334 3.334v26.663a3.333 3.333 0 0 1-3.334 3.333zm36.663-6.666v-7.238a9.96 9.96 0 0 1-3.334.572 9.956 9.956 0 0 1-6.665-2.554 9.962 9.962 0 0 1-6.666 2.554 9.954 9.954 0 0 1-6.665-2.554 9.961 9.961 0 0 1-6.666 2.554 9.966 9.966 0 0 1-3.334-.572v7.238zm0-19.997h-6.666v3.332a3.337 3.337 0 0 0 3.332 3.333A3.336 3.336 0 0 0 53.443 50zm-13.33 0h-6.667v3.332a3.337 3.337 0 0 0 3.332 3.333A3.338 3.338 0 0 0 40.112 50zm-20 3.332a3.337 3.337 0 0 0 3.334 3.333A3.337 3.337 0 0 0 26.78 50v-3.332h-6.666zm83.77 10c5.513 0 9.998 4.485 9.998 9.998V83.33c0 5.513-4.485 10-9.998 10h-3.907c-1.376 3.878-5.08 6.666-9.425 6.666-4.346 0-8.05-2.788-9.426-6.667H52.87c-1.378 3.879-5.081 6.667-9.427 6.667a9.96 9.96 0 0 1-6.666-2.555 9.957 9.957 0 0 1-6.665 2.555c-4.347 0-8.05-2.788-9.426-6.667H10.114C4.6 93.328.115 88.842.115 83.33V36.667c0-5.513 4.486-9.999 9.999-9.999h13.341a16.581 16.581 0 0 1-3.342-10V3.339A3.332 3.332 0 0 1 23.447.003h33.329c5.513 0 10 4.486 10 9.999 0 5.514-4.487 10-10 10h-3.669a16.588 16.588 0 0 1-3.006 6.665h13.341c5.514 0 9.999 4.486 9.999 10V40h12.304a9.988 9.988 0 0 1 9.488 6.837l4.386 13.161zM73.44 46.666v13.331h19.151l-3.684-11.052a3.33 3.33 0 0 0-3.163-2.28zM60.11 10.003a3.338 3.338 0 0 0-3.335-3.333h-3.333v6.667h3.333a3.339 3.339 0 0 0 3.334-3.334zM26.78 16.669c0 5.513 4.485 10 9.998 10 5.514 0 10-4.487 10-10V6.67H26.78zM6.781 83.329a3.337 3.337 0 0 0 3.332 3.333h10.573c1.376-3.879 5.08-6.666 9.426-6.666 2.558 0 4.895.968 6.665 2.555a9.96 9.96 0 0 1 6.666-2.555c4.346 0 8.05 2.787 9.427 6.666h13.904V36.667a3.338 3.338 0 0 0-3.333-3.333H10.114a3.337 3.337 0 0 0-3.332 3.333zm23.33 10a3.337 3.337 0 0 0 3.334-3.334 3.337 3.337 0 0 0-3.333-3.333 3.337 3.337 0 0 0-3.334 3.333 3.337 3.337 0 0 0 3.334 3.333zm13.332 0a3.337 3.337 0 0 0 3.333-3.334 3.337 3.337 0 0 0-3.333-3.333 3.336 3.336 0 0 0-3.332 3.333 3.336 3.336 0 0 0 3.332 3.333zm47.107 0a3.336 3.336 0 0 0 3.332-3.334 3.336 3.336 0 0 0-3.332-3.333 3.337 3.337 0 0 0-3.333 3.333 3.337 3.337 0 0 0 3.333 3.333zm16.665-23.332a3.338 3.338 0 0 0-3.333-3.333H73.44v19.998h7.684c1.376-3.879 5.08-6.666 9.426-6.666 4.345 0 8.05 2.787 9.425 6.666h3.907a3.338 3.338 0 0 0 3.333-3.333z"/></g></g></svg>