<svg xmlns="http://www.w3.org/2000/svg" width="41" height="40" viewBox="0 0 41 40"><defs><clipPath id="706xa"><path fill="#fff" d="M20.79-.002c11.047 0 20.002 8.955 20.002 20C40.792 31.046 31.837 40 20.79 40c-11.046 0-20-8.955-20-20.001 0-11.046 8.954-20 20-20z"/></clipPath></defs><g><g><path fill="#efe6d6" d="M20.79-.002c11.047 0 20.002 8.955 20.002 20C40.792 31.046 31.837 40 20.79 40c-11.046 0-20-8.955-20-20.001 0-11.046 8.954-20 20-20z"/><path fill="none" stroke="#cfc0b0" stroke-miterlimit="20" stroke-width="2" d="M20.79-.002c11.047 0 20.002 8.955 20.002 20C40.792 31.046 31.837 40 20.79 40c-11.046 0-20-8.955-20-20.001 0-11.046 8.954-20 20-20z" clip-path="url(&quot;#706xa&quot;)"/></g><g><path fill="#9c897b" d="M29.382 25.807c-.112.014-.225.03-.339.031-1.112.002-2.226 0-3.34.004a.63.63 0 0 1-.4-.143c-.232-.181-.471-.358-.687-.56-.556-.526-1.1-1.067-1.653-1.598-.17-.165-.356-.318-.536-.476-.094-.084-.211-.102-.333-.1-.163.003-.298.074-.362.218-.058.13-.108.271-.123.41-.027.251-.028.505-.034.756-.005.283-.014.565-.097.84a1.59 1.59 0 0 1-.156.353.601.601 0 0 1-.527.296c-.972.021-1.945.035-2.915-.026a1.427 1.427 0 0 1-.505-.142 8.243 8.243 0 0 1-2.393-1.689c-.842-.853-1.605-1.768-2.37-2.683-1.028-1.233-1.917-2.555-2.715-3.93-.292-.502-.574-1.011-.784-1.551a1.217 1.217 0 0 1-.024-.803.81.81 0 0 1 .107-.227.347.347 0 0 1 .299-.162 4.91 4.91 0 0 1 .14-.002c1.01 0 2.018.004 3.026-.004.2 0 .353.063.487.192.248.236.44.513.616.8.19.313.38.628.545.952.367.715.818 1.38 1.294 2.03.233.316.483.62.725.93.113.144.268.198.447.203.174.006.244-.061.252-.228l.001-.12v-3.254c0-.084 0-.17-.009-.254-.02-.193-.128-.306-.33-.344-.091-.017-.184-.025-.277-.036-.284-.036-.4-.15-.431-.422-.043-.41.162-.73.565-.874.175-.061.354-.075.539-.074h2.698c.182 0 .365-.008.546.007.19.018.382.04.566.092.394.109.621.363.666.757.012.093.014.188.014.282l.001 1.976.001 2.096c0 .068.007.14.028.205.063.212.305.282.509.149.6-.393.993-.942 1.295-1.552.279-.563.521-1.143.783-1.715.212-.453.427-.903.647-1.352.054-.112.133-.212.205-.314a.318.318 0 0 1 .28-.132c1.306.004 2.61.004 3.916.002.32 0 .572.124.773.356.07.082.098.178.117.284.077.49-.1.918-.345 1.329-.234.39-.51.748-.812 1.088-.624.705-1.237 1.418-1.772 2.187-.138.198-.255.408-.382.613-.092.15-.081.293.036.426.235.27.464.55.712.807.59.616 1.193 1.216 1.786 1.829.19.197.362.409.538.616.057.07.102.15.158.22.445.545-.108 1.362-.667 1.431z"/></g></g></svg>