<svg xmlns="http://www.w3.org/2000/svg" width="41" height="40" viewBox="0 0 41 40"><defs><clipPath id="sf8ca"><path fill="#fff" d="M20.204-.002c11.048 0 20.002 8.955 20.002 20C40.206 31.045 31.252 40 20.204 40c-11.044 0-20-8.955-20-20 0-11.046 8.956-20 20-20z"/></clipPath></defs><g><g><path fill="#efe6d6" d="M20.204-.002c11.048 0 20.002 8.955 20.002 20C40.206 31.045 31.252 40 20.204 40c-11.044 0-20-8.955-20-20 0-11.046 8.956-20 20-20z"/><path fill="none" stroke="#cfc0b0" stroke-miterlimit="20" stroke-width="2" d="M20.204-.002c11.048 0 20.002 8.955 20.002 20C40.206 31.045 31.252 40 20.204 40c-11.044 0-20-8.955-20-20 0-11.046 8.956-20 20-20z" clip-path="url(&quot;#sf8ca&quot;)"/></g><g><path fill="#9c897b" d="M21.79 30.588h-3.774v-10.59H15.5V16.35l2.516-.001-.004-2.15c0-2.978.768-4.788 4.103-4.788h2.778v3.65h-1.736c-1.3 0-1.362.51-1.362 1.461l-.004 1.827h3.122l-.369 3.65h-2.751z"/></g></g></svg>