<svg xmlns="http://www.w3.org/2000/svg" width="40" height="40" viewBox="0 0 40 40"><defs><clipPath id="w6lma"><path fill="#fff" d="M20.086-.002c11.046 0 20 8.954 20 20s-8.954 20.001-20 20.001c-11.045 0-20-8.955-20-20.001 0-11.046 8.955-20 20-20z"/></clipPath></defs><g><g><path fill="#512a18" d="M20.086-.002c11.046 0 20 8.954 20 20s-8.954 20.001-20 20.001c-11.045 0-20-8.955-20-20.001 0-11.046 8.955-20 20-20z"/><path fill="none" stroke="#cfc0b0" stroke-miterlimit="20" stroke-width="2" d="M20.086-.002c11.046 0 20 8.954 20 20s-8.954 20.001-20 20.001c-11.045 0-20-8.955-20-20.001 0-11.046 8.955-20 20-20z" clip-path="url(&quot;#w6lma&quot;)"/></g><g><path fill="#9c897b" d="M29.498 14.75a7.7 7.7 0 0 1-2.218.607 3.866 3.866 0 0 0 1.698-2.136 7.713 7.713 0 0 1-2.452.937 3.86 3.86 0 0 0-6.58 3.522 10.964 10.964 0 0 1-7.961-4.034A3.858 3.858 0 0 0 13.18 18.8a3.842 3.842 0 0 1-1.75-.483v.049c0 1.87 1.332 3.431 3.098 3.786a3.876 3.876 0 0 1-1.743.066 3.867 3.867 0 0 0 3.606 2.682 7.748 7.748 0 0 1-5.717 1.598 10.93 10.93 0 0 0 5.92 1.735c7.104 0 10.988-5.884 10.988-10.986 0-.167-.004-.334-.01-.5a7.8 7.8 0 0 0 1.926-1.998z"/></g></g></svg>