<svg xmlns="http://www.w3.org/2000/svg" width="19" height="25" viewBox="0 0 19 25"><g><g><path fill="#fff" d="M7.224 5.016v-.134H-.013v-.444c0-.888.91-1.6 2.412-2.088 1.092-.355 2.503-.621 4.05-.71a.87.87 0 0 1-.09-.4c0-.31.137-.666.364-.888.273-.222.591-.356.91-.356.364 0 .683.134.91.356h.046c.227.222.364.577.364.888a.87.87 0 0 1-.09.4c1.547.089 2.957.355 4.05.71 1.501.489 2.412 1.2 2.412 2.088v.444H8.088v.134h7.237v2.398h2.14c.454 0 .818.178 1.091.444.274.266.456.622.456 1.066v10.572c0 .4-.182.8-.456 1.065a1.525 1.525 0 0 1-1.092.444h-2.14v2.71c0 .355-.182.71-.408.932a1.614 1.614 0 0 1-1.003.356H1.397c-.364 0-.728-.133-1.001-.356-.227-.221-.41-.577-.41-.932v-18.7zM.897 12.744h6.327v-6.84H.897zm7.19 0h6.327v-6.84H8.088zm6.327.888H8.088v4.353h3.14v.888H4.083v-.888h3.14v-4.353H.898v10.083c0 .089.044.222.136.267.09.088.228.133.364.133h12.516a.525.525 0 0 0 .365-.133c.091-.045.136-.178.136-.267zm.91-5.33v11.815h2.14a.704.704 0 0 0 .455-.177c.09-.134.183-.267.183-.444V8.924a.673.673 0 0 0-.183-.444.704.704 0 0 0-.455-.178zM7.634.885a.348.348 0 0 0-.227.089c-.092.088-.137.177-.137.266 0 .133.045.222.137.267a.25.25 0 0 0 .227.133c.136 0 .228-.045.272-.133.092-.045.137-.134.137-.267 0-.089-.045-.178-.137-.266C7.861.929 7.77.885 7.633.885zm-6.51 3.109h13.065c-.275-.311-.82-.577-1.595-.8-1.229-.444-3.003-.666-4.96-.666-1.912 0-3.686.222-4.915.666-.774.223-1.321.489-1.594.8z"/></g></g></svg>