<svg xmlns="http://www.w3.org/2000/svg" width="100" height="101" viewBox="0 0 100 101"><g><g><path fill="#cfc0b0" d="M100.047 56.068v11.719c0 3.82-2.453 7.076-5.866 8.286V91.42c0 4.847-3.946 8.79-8.797 8.79H8.748c-4.851 0-8.797-3.943-8.797-8.79V23.35c0-5.056 3.946-8.868 8.797-8.868h10.904L33.271.977c1.146-1.058 2.996-1.055 4.14.086l6.723 6.719 6.723-6.719a2.936 2.936 0 0 1 4.147 0l13.509 13.42h11.006c4.852 0 8.798 4.02 8.798 8.867v3.433c3.413 1.21 5.864 4.466 5.864 8.286v12.713c3.413 1.21 5.866 4.466 5.866 8.286zm-26.588-8.79h14.858V35.07a2.935 2.935 0 0 0-2.408-2.88c-.17.03-.345.05-.525.05H8.748a8.668 8.668 0 0 1-2.933-.51v50.903h82.502v-6.055H73.459c-8.086 0-14.664-6.572-14.664-14.65 0-8.077 6.578-14.649 14.664-14.649zm-39.645-20.9h38.234L62.95 17.29a17.495 17.495 0 0 1-10.019 3.131c-3.627 0-7.097-1.1-10.02-3.13zm40.564-6.075l5.964 6.075h2.11V23.35c0-1.616-1.317-3.047-2.933-3.047zM47.16 13.045a11.684 11.684 0 0 0 5.771 1.515c2.052 0 4.028-.529 5.771-1.515l-5.771-5.766zm-31.1 13.333h9.46l14.467-14.453-4.659-4.654L16.06 26.378zM5.815 23.35c0 1.33.882 2.493 2.063 2.887l5.865-5.934H8.748c-1.617 0-2.933 1.431-2.933 3.047zm82.502 68.07v-2.928H5.815v2.929a2.935 2.935 0 0 0 2.933 2.93h76.636a2.935 2.935 0 0 0 2.933-2.93zm5.864-35.352a2.934 2.934 0 0 0-2.931-2.93H73.459c-4.851 0-8.798 3.943-8.798 8.79 0 4.846 3.947 8.789 8.798 8.789h17.79a2.934 2.934 0 0 0 2.932-2.93zm-20.722 2.93a2.93 2.93 0 1 1 0 5.859 2.93 2.93 0 1 1 0-5.86z"/></g></g></svg>