<svg xmlns="http://www.w3.org/2000/svg" width="41" height="40" viewBox="0 0 41 40"><defs><clipPath id="d1toa"><path fill="#fff" d="M20.205-.002c11.046 0 20.001 8.955 20.001 20C40.206 31.046 31.251 40 20.205 40c-11.045 0-20-8.955-20-20.001 0-11.046 8.955-20 20-20z"/></clipPath></defs><g><g><path fill="#512a18" d="M20.205-.002c11.046 0 20.001 8.955 20.001 20C40.206 31.046 31.251 40 20.205 40c-11.045 0-20-8.955-20-20.001 0-11.046 8.955-20 20-20z"/><path fill="none" stroke="#cfc0b0" stroke-miterlimit="20" stroke-width="2" d="M20.205-.002c11.046 0 20.001 8.955 20.001 20C40.206 31.046 31.251 40 20.205 40c-11.045 0-20-8.955-20-20.001 0-11.046 8.955-20 20-20z" clip-path="url(&quot;#d1toa&quot;)"/></g><g><path fill="#9c897b" d="M21.79 30.588h-3.773v-10.59h-2.518V16.35l2.518-.001-.005-2.15c0-2.977.768-4.789 4.104-4.789h2.776v3.65h-1.735c-1.3 0-1.36.51-1.36 1.462l-.007 1.827h3.122l-.368 3.65h-2.75z"/></g></g></svg>