<svg xmlns="http://www.w3.org/2000/svg" width="100" height="100" viewBox="0 0 100 100"><g><g><path fill="#cfc0b0" d="M98.132 73.041v.001l-14.06 18.751c-3.851 5.136-9.981 8.203-16.4 8.203H41.133c-9.862 0-16.883-2.136-19.961-3.002a8.76 8.76 0 0 1-6.604 3.002H2.855a2.93 2.93 0 0 1-2.93-2.93V61.912a2.93 2.93 0 0 1 2.93-2.93h8.786V20.51l.002-.045a2.9 2.9 0 0 1 .463-1.536c.009-.014.016-.03.026-.044l.006-.008.004-.008L23.847 1.307A2.928 2.928 0 0 1 26.283.002h53.103c.98 0 1.894.49 2.436 1.305l11.704 17.56.006.01.006.007.02.037c.288.444.46.97.469 1.543l.002.045v38.978c5.59 1.983 7.649 8.825 4.103 13.554zm-13.461-11.26a8.804 8.804 0 0 1 3.5-2.29V23.44H64.55v20.7c0 2.348-2.618 3.73-4.553 2.439l-7.161-4.775-7.162 4.775c-1.94 1.294-4.552-.1-4.552-2.438V23.439H17.498v36.048a8.827 8.827 0 0 1 4.249 3.227c7.72-6.605 19.217-6.545 26.863.187a7.783 7.783 0 0 0 5.143 1.941h13.92c3.937 0 7.277 2.605 8.39 6.184zM46.978 38.667l4.232-2.822a2.924 2.924 0 0 1 3.248 0l4.235 2.822V23.44H46.978zM58.693 5.862H46.978V17.58h11.715zm19.126 0h-13.27V17.58h21.08zM20.04 17.58h21.08V5.862H27.849zm-2.543 73.628V67.77a2.932 2.932 0 0 0-2.93-2.929H5.783v29.295h8.785a2.933 2.933 0 0 0 2.93-2.93zm75.948-21.681v-.001c1.437-1.916.067-4.684-2.345-4.684-.823 0-1.585.332-2.144.934L76.063 79.621a8.81 8.81 0 0 1-6.427 2.798h-23.05a2.93 2.93 0 0 1 0-5.859h21.086a2.932 2.932 0 0 0 2.928-2.93 2.931 2.931 0 0 0-2.928-2.928H53.753c-3.32 0-6.52-1.209-9.011-3.403-5.515-4.855-13.832-4.855-19.348 0l-2.078 1.797c0 23.878.003 22.088-.008 22.423 5.561 1.565 10.957 2.618 17.825 2.618h26.54a14.71 14.71 0 0 0 11.713-5.86zM82.315 56.054a2.93 2.93 0 0 1-2.929 2.929H67.672a2.929 2.929 0 0 1 0-5.859h11.714a2.93 2.93 0 0 1 2.929 2.93z"/></g></g></svg>