<svg xmlns="http://www.w3.org/2000/svg" width="22" height="19" viewBox="0 0 22 19"><g><g><path fill="#f6f5f3" d="M19.63 2.175a5.711 5.711 0 0 1 0 8.08l-8.002 7.982a.88.88 0 0 1-.796.242.879.879 0 0 1-.465-.242l-8-7.982a5.71 5.71 0 0 1 0-8.08A5.694 5.694 0 0 1 6.418.502c1.528 0 2.967.594 4.049 1.673l.532.532.532-.532A5.702 5.702 0 0 1 15.58.502c1.53 0 2.968.594 4.05 1.673zm-1.251 6.832a3.947 3.947 0 0 0-2.8-6.74c-1.057 0-2.05.41-2.796 1.156l-1.16 1.157a.913.913 0 0 1-1.25 0l-1.16-1.157a3.93 3.93 0 0 0-2.796-1.155 3.945 3.945 0 0 0-2.799 6.739l7.38 7.364z"/></g></g></svg>