<svg xmlns="http://www.w3.org/2000/svg" width="22" height="18" viewBox="0 0 22 18"><g><g><path fill="#f6f5f3" d="M6.174 0h14.647a1.177 1.177 0 1 1 0 2.352H6.174a1.176 1.176 0 0 1 0-2.353zm0 7.823h14.647a1.177 1.177 0 1 1 0 2.353H6.174a1.176 1.176 0 0 1 0-2.353zm0 7.823h14.647a1.177 1.177 0 1 1 0 2.353H6.174a1.176 1.176 0 0 1 0-2.353zM1.171-.001h.656a1.172 1.172 0 0 1 0 2.344H1.17a1.171 1.171 0 1 1 0-2.344zm.004 7.813h.647c.65 0 1.176.526 1.176 1.176v.022c0 .65-.526 1.177-1.176 1.177h-.647c-.65 0-1.177-.527-1.177-1.177v-.022c0-.65.527-1.176 1.177-1.176zm-.004 7.843h.656a1.172 1.172 0 0 1 0 2.344H1.17a1.172 1.172 0 1 1 0-2.344z"/></g></g></svg>