<svg xmlns="http://www.w3.org/2000/svg" width="22" height="30" viewBox="0 0 22 30"><g><g><path fill="#cfc0b0" d="M18.024 25.606a.88.88 0 0 1-.878.88h-1.757a.878.878 0 0 1 0-1.759h1.757c.485 0 .878.393.878.88zm3.692-1.815l-1.1 5.504a.88.88 0 0 1-.861.706H2.213a.879.879 0 0 1-.862-.706L.25 23.79a4.391 4.391 0 0 1 3.243-5.125l3.123-.778v-2.162a6.131 6.131 0 0 1-1.757-4.3V7.908c0-3.393 2.747-6.153 6.137-6.153.437 0 .864.046 1.277.134A3.535 3.535 0 0 1 15.39-.002a3.519 3.519 0 0 1 3.514 3.516 3.54 3.54 0 0 1-1.89 3.117c.087.412.132.84.132 1.278v3.516c0 1.73-.717 3.296-1.87 4.416v2.043l3.194.781a4.39 4.39 0 0 1 3.247 5.126zm-8.199-5.217v-1.537c-.77.347-1.622.54-2.52.54a6.112 6.112 0 0 1-2.635-.593v1.59a.878.878 0 0 1-.666.852l-.195.05a4.389 4.389 0 0 0 6.976.023l-.29-.071a.878.878 0 0 1-.67-.854zM15.4 7.909c0-.302-.042-.597-.1-.882a6.172 6.172 0 0 1-4.303 1.76H6.604v2.638a4.4 4.4 0 0 0 4.393 4.395c2.42 0 4.403-1.972 4.403-4.395zm-1.453-5.397a6.2 6.2 0 0 1 2.445 2.445 1.76 1.76 0 0 0-1.002-3.201c-.587 0-1.121.296-1.443.756zM6.693 7.029h4.304a4.407 4.407 0 0 0 3.512-1.756 4.384 4.384 0 0 0-3.512-1.759A4.4 4.4 0 0 0 6.693 7.03zm11.355 13.343l-1.755-.43a6.146 6.146 0 0 1-10.601-.014l-1.772.444a2.635 2.635 0 0 0-1.946 3.075l.959 4.796h16.101l.96-4.796a2.635 2.635 0 0 0-1.946-3.075z"/></g></g></svg>