<svg xmlns="http://www.w3.org/2000/svg" width="31" height="30" viewBox="0 0 31 30"><g><g><path fill="#cfc0b0" d="M28.583 22.119a2.637 2.637 0 0 1 0 3.73l-1.245 1.243c-4.01 4.008-10.02 3.665-13.575.113l-10.2-10.172C-.367 13.107.046 6.818 3.676 3.47l1.245-1.244a2.64 2.64 0 0 1 3.732 0l3.733 3.73a2.634 2.634 0 0 1 0 3.73l-1.696 1.696a1.997 1.997 0 0 0 0 2.826l5.9 5.876h.002a2 2 0 0 0 2.828 0l1.697-1.695a2.64 2.64 0 0 1 3.733 0zm-6.222-2.487l-.622.622 4.977 4.974.622-.622a.88.88 0 0 0 0-1.244l-3.733-3.73a.88.88 0 0 0-1.244 0zM6.165 3.47l-.622.621 4.976 4.973.623-.621a.878.878 0 0 0 0-1.244L7.41 3.47a.882.882 0 0 0-1.245 0zm19.283 22.977l-4.96-4.956a3.756 3.756 0 0 1-5.14-.163L9.446 15.45a3.75 3.75 0 0 1-.164-5.138L4.322 5.36c-2.53 3.042-2.367 7.58.485 10.43l10.2 10.172a7.759 7.759 0 0 0 10.441.486zM30.81 2.621v7.033a2.643 2.643 0 0 1-2.64 2.637h-4.914l-3.263 3.259c-.553.552-1.502.16-1.502-.622v-2.637h-.88a2.641 2.641 0 0 1-2.639-2.637V2.62a2.641 2.641 0 0 1 2.64-2.638h10.558a2.643 2.643 0 0 1 2.64 2.638zm-1.76 0a.881.881 0 0 0-.88-.88H17.61a.882.882 0 0 0-.881.88v7.033c0 .485.396.878.88.878h1.76a.88.88 0 0 1 .88.88v1.394l2.018-2.016a.88.88 0 0 1 .622-.258h5.279a.88.88 0 0 0 .88-.878zm-1.76 1.758a.879.879 0 0 1-.88.879h-7.038a.88.88 0 1 1 0-1.758h7.039a.88.88 0 0 1 .88.88zM23.77 7.895a.88.88 0 0 1-.88.88h-3.52a.88.88 0 1 1 0-1.759h3.52a.88.88 0 0 1 .88.879z"/></g></g></svg>