<svg xmlns="http://www.w3.org/2000/svg" width="41" height="40" viewBox="0 0 41 40"><defs><clipPath id="yaska"><path fill="#fff" d="M20.791-.002c11.046 0 20 8.955 20 20 0 11.047-8.954 20.002-20 20.002s-20-8.955-20-20.001c0-11.046 8.954-20 20-20z"/></clipPath></defs><g><g><path fill="#512a18" d="M20.791-.002c11.046 0 20 8.955 20 20 0 11.047-8.954 20.002-20 20.002s-20-8.955-20-20.001c0-11.046 8.954-20 20-20z"/><path fill="none" stroke="#cfc0b0" stroke-miterlimit="20" stroke-width="2" d="M20.791-.002c11.046 0 20 8.955 20 20 0 11.047-8.954 20.002-20 20.002s-20-8.955-20-20.001c0-11.046 8.954-20 20-20z" clip-path="url(&quot;#yaska&quot;)"/></g><g><path fill="#9c897b" d="M29.382 25.807c-.111.014-.225.03-.338.031-1.114.002-2.228 0-3.34.004a.632.632 0 0 1-.4-.143c-.234-.181-.472-.358-.687-.56-.557-.526-1.1-1.067-1.653-1.598-.172-.165-.356-.318-.538-.476-.093-.084-.21-.102-.332-.1-.162.003-.297.074-.362.218-.058.13-.108.271-.122.41-.028.251-.03.505-.035.756-.004.283-.014.565-.097.84-.038.122-.09.244-.156.353a.601.601 0 0 1-.528.296c-.97.021-1.942.035-2.914-.026a1.42 1.42 0 0 1-.505-.142 8.228 8.228 0 0 1-2.393-1.689c-.84-.853-1.605-1.768-2.37-2.683-1.027-1.233-1.917-2.555-2.715-3.93-.292-.502-.573-1.011-.784-1.551a1.21 1.21 0 0 1-.025-.803.813.813 0 0 1 .108-.227.345.345 0 0 1 .299-.162l.14-.002c1.008 0 2.017.004 3.027-.004.2 0 .352.063.487.192.248.236.44.513.615.8.19.313.378.628.545.952.368.715.818 1.38 1.295 2.03.232.316.483.62.724.93.113.144.268.198.447.203.174.006.245-.061.253-.228v-.12-3.254c0-.084 0-.17-.01-.254-.02-.193-.128-.306-.329-.344-.09-.017-.184-.025-.277-.036-.284-.036-.401-.15-.432-.422-.043-.41.163-.73.566-.874.175-.061.354-.075.538-.074h2.7c.18 0 .364-.008.545.007a3.2 3.2 0 0 1 .566.092c.394.109.62.363.667.757.01.093.013.188.013.282.002.658.002 1.318.002 1.976v2.096c0 .068.007.14.027.205.064.212.307.282.51.149.599-.393.993-.942 1.295-1.552.28-.563.522-1.143.784-1.715.21-.453.427-.903.646-1.352.053-.112.133-.212.206-.314.066-.091.156-.132.278-.132 1.307.004 2.611.004 3.917.002.32 0 .573.124.772.356.07.082.1.178.117.284.077.49-.098.918-.344 1.329a7.28 7.28 0 0 1-.812 1.088c-.625.705-1.237 1.418-1.772 2.187-.139.198-.256.408-.382.613-.093.15-.08.293.037.426.234.27.463.55.711.807.59.616 1.194 1.216 1.787 1.829.189.197.361.409.537.616.058.07.102.15.158.22.445.545-.108 1.362-.667 1.431z"/></g></g></svg>