<svg xmlns="http://www.w3.org/2000/svg" width="30" height="30" viewBox="0 0 30 30"><g><g><path fill="#cfc0b0" d="M30 6.15v21.214a2.64 2.64 0 0 1-2.638 2.637H2.635a2.639 2.639 0 0 1-2.637-2.637V6.15a2.639 2.639 0 0 1 2.637-2.636h.877v-.879A2.641 2.641 0 0 1 6.151-.002a2.64 2.64 0 0 1 2.637 2.637v.879h3.632v-.879a2.64 2.64 0 0 1 2.636-2.637 2.64 2.64 0 0 1 2.638 2.637v.879h3.515v-.879a2.64 2.64 0 0 1 2.638-2.637 2.641 2.641 0 0 1 2.638 2.637v.879h.877A2.64 2.64 0 0 1 30 6.15zm-7.032 0c0 .486.395.88.879.88a.88.88 0 0 0 .88-.88V2.635a.88.88 0 0 0-.88-.88.88.88 0 0 0-.879.88zm-8.789 0a.88.88 0 1 0 1.757 0V2.635a.88.88 0 0 0-1.757 0zm-8.908 0a.88.88 0 0 0 1.757 0V2.635a.88.88 0 1 0-1.757 0zm-3.516 0v4.514h26.487V6.15a.88.88 0 0 0-.88-.878h-.877v.878a2.64 2.64 0 0 1-2.638 2.638 2.64 2.64 0 0 1-2.638-2.638v-.878h-3.515v.878a2.64 2.64 0 0 1-2.638 2.638A2.64 2.64 0 0 1 12.42 6.15v-.878H8.788v.878a2.64 2.64 0 0 1-2.637 2.638A2.64 2.64 0 0 1 3.512 6.15v-.878h-.877a.88.88 0 0 0-.88.878zm26.487 6.27H1.755v14.944a.88.88 0 0 0 .88.879h24.727a.88.88 0 0 0 .88-.879zM3.512 25.607V15.058a.88.88 0 0 1 .88-.88h21.214a.88.88 0 0 1 .88.88v10.548a.88.88 0 0 1-.88.879H4.392a.88.88 0 0 1-.88-.879zm7.033-.88h3.634v-3.515h-3.634zm-1.757-3.515H5.271v3.516h3.517zm7.148 3.516h3.517V21.21h-3.517zm5.273 0h3.517V21.21H21.21zm3.517-8.79H21.21v3.516h3.517zm-5.273 0h-3.517v3.516h3.517zm-5.274 0h-3.634v3.516h3.634zm-5.39 0H5.27v3.516h3.517z"/></g></g></svg>