<svg xmlns="http://www.w3.org/2000/svg" width="100" height="101" viewBox="0 0 100 101"><g><g><path fill="#cfc0b0" d="M100.046 56.068v11.72c0 3.819-2.451 7.076-5.865 8.285V91.42c0 4.847-3.946 8.79-8.797 8.79H8.749c-4.853 0-8.799-3.943-8.799-8.79V23.35c0-5.055 3.946-8.868 8.799-8.868h10.903L33.27.977a3.012 3.012 0 0 1 4.14.086l6.722 6.719 6.725-6.719a2.936 2.936 0 0 1 4.148 0l13.508 13.42H79.52c4.85 0 8.797 4.02 8.797 8.867v3.433c3.413 1.21 5.865 4.467 5.865 8.286v12.713c3.414 1.21 5.865 4.466 5.865 8.286zm-26.587-8.79h14.857v-12.21a2.934 2.934 0 0 0-2.407-2.88 2.935 2.935 0 0 1-.525.05H8.749a8.673 8.673 0 0 1-2.933-.51v50.903h82.5v-6.055H73.46c-8.085 0-14.663-6.571-14.663-14.649 0-8.077 6.578-14.649 14.663-14.649zm-39.645-20.9H72.05l-9.1-9.089a17.491 17.491 0 0 1-10.017 3.13 17.5 17.5 0 0 1-10.021-3.13zm40.565-6.075l5.963 6.075h2.11V23.35c0-1.616-1.315-3.047-2.933-3.047zM47.16 13.045a11.678 11.678 0 0 0 5.772 1.515c2.052 0 4.027-.528 5.77-1.515l-5.77-5.767zm-31.1 13.333h9.46l14.466-14.453-4.657-4.654L16.06 26.378zM5.817 23.35c0 1.33.882 2.492 2.062 2.886l5.865-5.933H8.75c-1.618 0-2.933 1.431-2.933 3.047zm82.5 68.071v-2.93h-82.5v2.93a2.935 2.935 0 0 0 2.933 2.93h76.635a2.935 2.935 0 0 0 2.932-2.93zm5.865-35.353a2.934 2.934 0 0 0-2.933-2.93H73.459c-4.852 0-8.799 3.942-8.799 8.79 0 4.846 3.947 8.79 8.8 8.79h17.788a2.935 2.935 0 0 0 2.933-2.93zm-20.722 2.93a2.931 2.931 0 0 1 2.933 2.93 2.931 2.931 0 0 1-2.933 2.93 2.931 2.931 0 0 1-2.932-2.93 2.931 2.931 0 0 1 2.932-2.93z"/></g></g></svg>