<svg xmlns="http://www.w3.org/2000/svg" width="114" height="100" viewBox="0 0 114 100"><g><g><path fill="#cfc0b0" d="M16.78 73.33a3.332 3.332 0 0 1-3.332-3.333V43.333A3.332 3.332 0 0 1 16.78 40h39.996a3.333 3.333 0 0 1 3.333 3.333v26.664a3.333 3.333 0 0 1-3.333 3.333zm36.663-6.666v-7.239a9.947 9.947 0 0 1-3.332.573 9.96 9.96 0 0 1-6.667-2.555 9.957 9.957 0 0 1-6.665 2.555 9.955 9.955 0 0 1-6.666-2.555 9.96 9.96 0 0 1-6.667 2.555 9.953 9.953 0 0 1-3.333-.573v7.24zm0-19.997h-6.667v3.332a3.338 3.338 0 0 0 3.335 3.333A3.337 3.337 0 0 0 53.443 50zm-13.332 0h-6.665v3.332a3.336 3.336 0 0 0 3.333 3.333A3.337 3.337 0 0 0 40.111 50zm-19.998 3.332a3.337 3.337 0 0 0 3.333 3.333A3.336 3.336 0 0 0 26.778 50v-3.332h-6.665zm83.769 10c5.513 0 10 4.485 10 9.998V83.33c0 5.513-4.487 10-10 10h-3.904c-1.377 3.878-5.083 6.665-9.428 6.665-4.344 0-8.05-2.787-9.425-6.666H52.87c-1.378 3.88-5.081 6.666-9.427 6.666a9.954 9.954 0 0 1-6.665-2.554 9.966 9.966 0 0 1-6.666 2.554c-4.346 0-8.05-2.787-9.427-6.666H10.114C4.6 93.328.115 88.842.115 83.33V36.667c0-5.513 4.485-9.999 9.999-9.999h13.34a16.58 16.58 0 0 1-3.34-10V3.339A3.333 3.333 0 0 1 23.445.003h33.33c5.513 0 10 4.486 10 10 0 5.513-4.487 9.998-10 9.998h-3.667a16.613 16.613 0 0 1-3.007 6.666h13.34c5.513 0 10 4.486 10 10V40h12.305a9.987 9.987 0 0 1 9.485 6.837l4.387 13.161zm-30.44-13.332v13.331h19.15l-3.685-11.053a3.327 3.327 0 0 0-3.16-2.278zM60.109 10.003a3.336 3.336 0 0 0-3.333-3.333h-3.333v6.666h3.333a3.337 3.337 0 0 0 3.333-3.333zm-33.33 6.666c0 5.514 4.486 10 10 10 5.513 0 9.997-4.486 9.997-10V6.67H26.778zM6.78 83.329a3.338 3.338 0 0 0 3.333 3.333h10.572c1.376-3.879 5.081-6.666 9.427-6.666 2.557 0 4.894.968 6.666 2.555a9.955 9.955 0 0 1 6.665-2.555c4.346 0 8.05 2.787 9.427 6.666h13.904V36.667a3.337 3.337 0 0 0-3.334-3.333H10.114a3.338 3.338 0 0 0-3.333 3.333zm23.332 10a3.338 3.338 0 0 0 3.333-3.334 3.338 3.338 0 0 0-3.333-3.333 3.338 3.338 0 0 0-3.335 3.333 3.338 3.338 0 0 0 3.335 3.333zm13.331 0a3.337 3.337 0 0 0 3.332-3.334 3.336 3.336 0 0 0-3.332-3.333 3.337 3.337 0 0 0-3.333 3.333 3.338 3.338 0 0 0 3.333 3.333zm47.106 0a3.338 3.338 0 0 0 3.334-3.334 3.338 3.338 0 0 0-3.334-3.333 3.337 3.337 0 0 0-3.332 3.333 3.337 3.337 0 0 0 3.332 3.333zm16.665-23.332a3.336 3.336 0 0 0-3.333-3.333h-30.44v19.998h7.683c1.376-3.879 5.08-6.666 9.425-6.666 4.345 0 8.05 2.787 9.428 6.666h3.904a3.336 3.336 0 0 0 3.333-3.333z"/></g></g></svg>