<svg xmlns="http://www.w3.org/2000/svg" width="41" height="40" viewBox="0 0 41 40"><defs><clipPath id="rk3da"><path fill="#fff" d="M20.206-.002c11.045 0 20 8.954 20 20s-8.955 20.001-20 20.001C9.16 40 .204 31.044.204 19.998c0-11.046 8.956-20 20.002-20z"/></clipPath></defs><g><g><path fill="#512a18" d="M20.206-.002c11.045 0 20 8.954 20 20s-8.955 20.001-20 20.001C9.16 40 .204 31.044.204 19.998c0-11.046 8.956-20 20.002-20z"/><path fill="none" stroke="#cfc0b0" stroke-miterlimit="20" stroke-width="2" d="M20.206-.002c11.045 0 20 8.954 20 20s-8.955 20.001-20 20.001C9.16 40 .204 31.044.204 19.998c0-11.046 8.956-20 20.002-20z" clip-path="url(&quot;#rk3da&quot;)"/></g><g><path fill="#9c897b" d="M21.79 30.588h-3.774v-10.59H15.5V16.35l2.517-.002-.004-2.15c0-2.977.769-4.788 4.104-4.788h2.777v3.65h-1.736c-1.3 0-1.36.51-1.36 1.461l-.007 1.827h3.122l-.368 3.65h-2.75z"/></g></g></svg>