<svg xmlns="http://www.w3.org/2000/svg" width="12" height="12" viewBox="0 0 12 12"><defs><clipPath id="yheza"><path fill="#fff" d="M10.242.342l1.415 1.415-4.243 4.242 4.243 4.243-1.415 1.415-4.243-4.243-4.242 4.243-1.414-1.415L4.585 6 .343 1.757 1.757.342l4.242 4.243z"/></clipPath></defs><g><g opacity="-1"><path fill="#fff" d="M10.242.342l1.415 1.415-4.243 4.242 4.243 4.243-1.415 1.415-4.243-4.243-4.242 4.243-1.414-1.415L4.585 6 .343 1.757 1.757.342l4.242 4.243z"/><path fill="none" stroke="#cfc0b0" stroke-miterlimit="20" stroke-width="2" d="M10.242.342l1.415 1.415-4.243 4.242 4.243 4.243-1.415 1.415-4.243-4.243-4.242 4.243-1.414-1.415L4.585 6 .343 1.757 1.757.342l4.242 4.243z" clip-path="url(&quot;#yheza&quot;)"/></g></g></svg>