<svg xmlns="http://www.w3.org/2000/svg" width="131" height="120" viewBox="0 0 131 120"><g><g><path fill="#fff" d="M79.864 36.186c.415 5.366-7.132 8.777-14.98 8.777-5.63 0-13.075-2.22-13.069-6.243.004-3.993 12.131-4.423 13.575-4.43 6.056-.029 9.875 1.102 10.13 2.656.202 1.23-2.037 3.196-7.95 3.649-4.177.32-8.887-.65-12.232-2.952 1.29-.404 3.294-.595 4.1-.67 6.837 2.568 16.035 2.4 15.433.173-.369-1.356-21.715-1.858-22.05 1.648-.217 2.267 5.324 3.56 11.96 3.56 5.558 0 14.38-2.01 14.029-5.977-.237-2.672-15.921-5.588-24.544-3.116 0-.002-.595-.753-.858-1.403 9.345-3.7 26.048-.931 26.456 4.328zm-8.412-21.132c-.772-3.529.516-6.91 3.024-6.716 2.313.177 2.337 3.569.213 7.355-.227.403-.47.81-.726 1.215-.223-.532-.661-1.53-.848-2.262 1.367-2.764 2.134-6.374.463-5.636-4.555 2.012 2.169 13.08 3.026 15.447.875 2.416-1.06 4.03-2.483 3.531 1.435-.781-1.436-7.308-2.669-12.934zm-13.51 10.72c.619-4.517 5.891-9.07 6.723-10.011.312.816.841 1.776 1.207 2.37-.046.049-.094.1-.141.147-.865.867-8.939 7.951-6.428 9.33.894.49 1.553-.98 1.511-3.26a72.874 72.874 0 0 1 1.801-2.097c.215 1.972-.015 3.737-1.013 5.072-1.694 2.264-4.009.998-3.66-1.55zm14.088-6.061c-.67.933-5.648 6.856-3.998 8.054.786.573 2.206-1.405 1.532-3.678.203-.395.435-.759.68-1.093.283 1.288.349 2.48.047 3.532-.685 2.382-4.12 2.947-4.627-.016-.58-3.37 5.07-8.447 5.728-9.256.203.865.4 1.67.638 2.457zm-7.664-6.67c-1.107-3.972-.205-7.115 2.048-7.278 3.606-.259 3.752 5.15 1.482 9.494-.167-.516-.612-1.56-.909-2.455.748-1.161 1.275-2.326 1.41-3.476.39-3.26-2.922-3.92-2.99-1.304-.107 4.182 3.132 10.023 3.57 11.113-.4.367-.74.79-1.091 1.202-.53-.977-2.576-3.905-3.52-7.295zm23.437 52.765c-4.945 3.608-16.196 5.413-24.638 5.465-9.692.058-28.863-3.845-21.706-10.888 2.068-2.035 5.14-3.761 8.887-5.321.243.463.688 1.139.998 1.583-2.112.727-4.08 1.534-6.015 2.582-5.379 2.912 1.01 6.72 6.534 7.834 10.205 2.06 24.249 2.274 34.915-2.28 7.568-3.23-6.691-6.58-7.339-3.306-1.294-.172-2.76-2.887-.864-3.963 2.258-1.282 17 2.626 9.228 8.294zM60.129 19.854c-.237-.901-4.818-11.971-4.239-17.135.531-4.736 5.03-2.763 5.495 2.107.278 2.896-.202 5.493-1.098 7.944-.162-.366-.896-2.03-1.128-2.75C62.883-.803 54.242-3.244 57.856 8.08c.69 2.162 3.342 8.526 3.79 9.96-.356.415-1.062 1.237-1.517 1.815zm33.02 22.073c-1.448 4.87-8.308 7.775-18.474 9.732-6.59 1.268-13.087 2.118-19.113 3.694a10.837 10.837 0 0 1-1.252-1.811c10.077-3.364 31.988-5.827 36.672-10.696 2.292-2.385 1.841-7.578-2.273-7.165-3.472.35-5.149 4.967-7.233 10.574-1.407.432-2.835.769-4.41 1.176 1.492-3.881 3.292-7.97 5.746-10.38 4.642-4.555 12.658-2.945 10.336 4.876zm-39.816-6.022c-3.109-3.26-2.599-6.678-2.089-8.864 1.183-5.087 4.024-8.902 6.182-13.052.219.689.692 2.06.975 2.874-1.603 2.958-3.573 5.827-5.238 8.923-1.333 2.48-1.348 7.541 2.547 9.321-.884.187-1.697.5-2.377.798zM51.528 55.71c-3.063-4.561-5.155-13.784-4.087-18.07.469-1.883 1.503-3.239 3.447-4.5.09.407.335.915.57 1.31-.71.428-1.307.93-1.755 1.512-2.07 2.696.867 13.55 4.463 18.644 3.515 4.983 6.86 7.196 10.617 7.196 3.814 0 7.539-2.336 10.052-8.496.17-.42.227-.603.395-1.04.859-.136 2.587-.47 4.187-.84-2.815 6.783-6.6 12.887-14.987 12.887-5.2 0-9.838-4.043-12.902-8.603zm-31.37 50.383l-.021.006-.008-.02zm-5.703 1.618l-6.827-5.326 1.907 6.72-4.352 1.233L.785 94.856l4.353-1.235 1.853 6.524 3.109-7.93 5.508-1.56-4.015 9.219 8.543 6.224zm5.682-1.612zM33.35 89.165c1.95 1.305 3.138 3.16 3.567 5.564.431 2.418-.043 4.568-1.424 6.452-1.38 1.882-3.302 3.044-5.767 3.482-2.45.437-4.65.002-6.6-1.305-1.949-1.306-3.135-3.152-3.56-5.541-.427-2.387.05-4.531 1.426-6.43 1.378-1.898 3.292-3.065 5.742-3.501l-.003-.022c2.464-.439 4.67-.005 6.62 1.301zm-1.661 9.501c.635-.907.848-1.956.635-3.142-.21-1.173-.768-2.075-1.677-2.709-.91-.634-1.958-.846-3.148-.634-1.158.206-2.054.771-2.686 1.694-.633.91-.847 1.942-.641 3.099.207 1.157.758 2.061 1.656 2.713.897.65 1.94.872 3.128.66 1.19-.212 2.099-.772 2.733-1.681zm20.89 1.347l.131 2.007-4.515.295-.131-2.006c-2.24-.05-4.047-.635-5.42-1.754-1.387-1.117-2.142-2.586-2.26-4.405-.12-1.835.435-3.396 1.666-4.684 1.217-1.287 2.933-2.094 5.149-2.42l-.112-1.692 4.517-.294.11 1.691c2.24.052 4.055.634 5.442 1.752 1.388 1.118 2.143 2.595 2.264 4.429.117 1.82-.433 3.373-1.647 4.66-1.232 1.288-2.954 2.102-5.17 2.443zm-4.754-3.358l-.395-6.046c-.896.15-1.591.52-2.082 1.11-.49.576-.708 1.278-.654 2.104.053.827.36 1.501.925 2.024.546.508 1.274.777 2.184.809l-.001-.023zm4.517-.296c.896-.148 1.59-.511 2.082-1.086.49-.59.709-1.299.655-2.127-.054-.826-.362-1.494-.924-2-.564-.521-1.3-.799-2.208-.83zm10.962 4.835l.286-16.09 10.09.18-.067 3.818-5.59-.098-.041 2.327 5.293.094-.066 3.752-5.293-.094-.042 2.395 5.813.104-.067 3.819v-.023zm27.607 1.073c-1.67.523-3.363.702-5.075.54-2.64-.25-4.697-1.263-6.164-3.038-1.467-1.773-2.087-3.876-1.854-6.305a8.342 8.342 0 0 1 1.554-4.167 8.103 8.103 0 0 1 3.45-2.805 8.993 8.993 0 0 1 4.52-.706c1.743.166 3.407.679 4.992 1.541l-.445 4.658c-1.473-1.079-3.048-1.698-4.731-1.857-1.232-.117-2.275.177-3.13.883-.87.704-1.363 1.663-1.479 2.88-.114 1.2.183 2.227.889 3.08.691.854 1.714 1.344 3.065 1.471 1.471.142 3.106-.159 4.902-.895l-.44 4.634zm.054-.086l-.003.023zm19.228 4.177l-.021-.004.003-.022zm-5.816-1.148l-3.66-7.842-1.356 6.852-4.44-.876 3.124-15.788 4.44.876-1.315 6.653 6.375-5.652 5.617 1.109-7.77 6.39 4.78 9.422zm5.794 1.144zm19.116-8.938c1.07 2.086 1.211 4.283.42 6.593-.795 2.325-2.255 3.976-4.374 4.955-2.122.98-4.365 1.065-6.734.256-2.355-.805-4.069-2.248-5.14-4.335-1.073-2.086-1.214-4.277-.429-6.572.786-2.296 2.24-3.94 4.368-4.934 2.124-.994 4.365-1.09 6.72-.284l.008-.022c2.367.81 4.089 2.257 5.16 4.343zm-6.062 7.508c.996-.488 1.689-1.302 2.08-2.442.385-1.126.333-2.187-.155-3.182-.489-.995-1.303-1.687-2.446-2.078-1.111-.38-2.169-.32-3.17.183-.996.488-1.684 1.288-2.065 2.4-.38 1.113-.337 2.17.132 3.174.47 1.004 1.275 1.702 2.417 2.092 1.142.39 2.21.34 3.207-.147zm-91.538 10.692h.683a4.38 4.38 0 0 1 .741-1.069c.401-.418.909-.747 1.33-.747.39 0 .533.33.533.525 0 .188-.16.366-.366.366a.263.263 0 0 1-.266-.26c0-.08.08-.186.15-.221.045-.018.097-.027.097-.116 0-.035-.016-.133-.177-.133-.438 0-.812.525-1.006.853a6.99 6.99 0 0 0-.535 1.185c-.097.293-.198.775-.198 1.042 0 .418.206.57.429.57.25 0 .463-.206.57-.303.152-.143.329-.364.41-.552.027-.053.063-.16.117-.16.017 0 .053.017.053.071 0 .062-.107.25-.15.329-.26.435-.715.793-1.185.793a.97.97 0 0 1-.66-.258c-.18-.179-.225-.401-.225-.624 0-.357.135-.828.26-1.113h-.687l-.72 1.78c-.03.072-.046.134-.173.134h-.07c-.06 0-.132.01-.195.027-.046.009-.08.018-.125.018s-.099-.01-.099-.08c0-.036.028-.08.054-.134.027-.044.036-.09.053-.125l.653-1.62h-.68c-.337.704-.659 1.077-.872 1.281-.33.322-.89.705-1.329.705-.337 0-.57-.214-.57-.525 0-.303.233-.393.383-.393.143 0 .277.107.277.277a.24.24 0 0 1-.152.23c-.053.019-.125.028-.125.117 0 .045.027.133.225.133.239 0 .586-.124 1.023-.863.178-.295.446-.846.543-1.14.099-.285.204-.792.204-1.103 0-.313-.114-.544-.398-.544-.233 0-.393.134-.528.267-.195.196-.205.258-.39.578-.054.1-.09.126-.127.126-.016 0-.053-.018-.053-.07 0-.037.02-.09.135-.304.098-.178.195-.312.33-.437a1.1 1.1 0 0 1 .817-.338c.331 0 .537.116.652.24.099.098.214.294.214.65 0 .312-.079.66-.187.935h.679l.614-1.522c.035-.08.044-.17.106-.196.054-.026.153.01.214.01.081 0 .17-.019.25-.046.027-.008.054-.017.08-.017.045 0 .071.017.071.062 0 .07-.07.152-.124.276zm8.624-1.638c.044-.089.037-.142.125-.142.026 0 .052.009.106.018.045.008.09.018.144.018.07 0 .222-.018.285-.054.027-.009.114-.062.114.036 0 .027-.016.062-.071.187l-1.175 2.67c-.036.08-.071.16-.098.25a1.07 1.07 0 0 0-.072.329c0 .223.16.24.232.24.116 0 .276-.035.454-.196.09-.08.17-.177.241-.276.036-.044.054-.07.079-.089.011-.009.02-.009.027-.009.018 0 .037.01.037.036 0 .062-.116.222-.197.312a1.194 1.194 0 0 1-.917.419c-.456 0-.641-.251-.641-.49 0-.08.027-.17.027-.187.008-.036.017-.08.033-.117a2.288 2.288 0 0 1-.48.543c-.232.187-.49.286-.828.286-.18 0-.42-.035-.65-.214-.313-.24-.392-.579-.392-.855 0-.436.22-.988.56-1.46.196-.275.43-.525.677-.747.5-.445.937-.677 1.409-.677.088 0 .285.009.443.098.2.116.288.338.305.543zm-.463.98c.107-.232.116-.32.116-.383a.752.752 0 0 0-.08-.294c-.07-.134-.232-.285-.528-.285-.302 0-.488.143-.64.293a2.392 2.392 0 0 0-.196.224 6.298 6.298 0 0 0-.668 1.086c-.303.623-.375 1.05-.375 1.345 0 .114.009.24.063.346a.444.444 0 0 0 .428.258.768.768 0 0 0 .31-.08c.092-.045.17-.098.242-.16.205-.17.435-.437.633-.855zm2.868 4.753c.063 0 .356.008.518.035.063.01.135.018.135.054 0 .072-.163.072-.207.072-.15 0-.312-.01-.471-.018-.117-.009-.233-.018-.349-.018-.41 0-.266.036-.846.036-.036 0-.08 0-.116-.01-.052-.008-.071-.045-.071-.062 0-.018.009-.089.249-.098.143-.01.312 0 .42-.08.098-.08.15-.24.22-.419l2.07-4.958c.07-.17.079-.196.079-.214 0-.07-.105-.07-.134-.07h-.036c-.062 0-.116.008-.175.008-.075 0-.154-.018-.154-.07 0-.054.063-.063.108-.063h.346c.526 0 .696-.045.757-.063.019-.008.038-.008.055-.008.044 0 .054.026.054.053 0 .044-.02.098-.25.605.295-.31.704-.623 1.203-.623.267 0 .509.09.678.214.186.143.4.4.4.855 0 .123-.01.25-.036.374-.115.649-.489 1.263-.953 1.717-.16.16-.338.303-.525.418-.401.25-.803.366-1.168.366-.152 0-.357-.017-.534-.178a.88.88 0 0 1-.24-.366zm1.274-3.07c-.026.07-.097.248-.097.355 0 .09.027.179.07.259.072.123.234.31.537.31.142 0 .285-.044.419-.106.212-.107.56-.365.953-1.104.32-.597.571-1.292.571-1.816 0-.142-.019-.347-.206-.463a.534.534 0 0 0-.259-.062c-.348 0-.713.258-.953.552-.267.32-.543.863-.74 1.344zm6.248.115c0 .196.027.8.694.8.296 0 .483-.106.642-.194.17-.1.231-.144.427-.375.038-.043.097-.125.153-.125.018 0 .045.01.045.054 0 .134-.295.4-.42.498a1.525 1.525 0 0 1-.99.348c-.748 0-1.335-.472-1.335-1.202 0-.436.195-1.148 1.087-1.923.65-.57 1.23-.82 1.745-.82.536 0 .742.295.742.606 0 .135-.038.436-.384.704a1.81 1.81 0 0 1-.464.248 2.623 2.623 0 0 1-.624.143 4.256 4.256 0 0 1-.988-.026c-.205.426-.33.756-.33 1.264zm1.89-1.914c.248-.284.267-.463.267-.57 0-.107-.037-.276-.278-.276-.275 0-.517.178-.56.214-.34.258-.697.765-.919 1.165.624.054 1.123-.105 1.49-.533zm3.528 2.689c-.054.124-.054.141-.126.141-.06 0-.125-.009-.187-.017-.044-.01-.099-.01-.143-.01-.062 0-.124.01-.187.018-.017 0-.034.01-.062.01-.036 0-.062-.01-.062-.045 0-.036.026-.054.052-.124.03-.054.046-.116.063-.152l1.132-2.741c.09-.223.106-.322.106-.375a.231.231 0 0 0-.034-.133c-.036-.054-.098-.062-.134-.062-.259 0-.481.258-.605.427a2.865 2.865 0 0 0-.232.33c-.02.035-.045.088-.09.088-.026 0-.07-.01-.07-.062 0-.053.025-.098.07-.161.116-.177.215-.311.356-.463.135-.141.251-.24.427-.32a.948.948 0 0 1 .428-.097c.233 0 .349.08.402.133.09.08.153.223.153.4a.88.88 0 0 1-.063.321l-.357.872h1.444l.58-1.397c.043-.116.053-.205.15-.205.027 0 .046.009.072.009.034.009.079.009.115.009h.152c.196 0 .223-.044.267-.044.027 0 .045.026.045.044s-.018.036-.027.062l-1.185 2.849c-.116.284-.132.392-.132.472 0 .15.097.213.23.213.232 0 .543-.25.704-.435.062-.072.098-.117.143-.117.018 0 .044.01.044.045 0 .133-.303.383-.393.445-.23.16-.472.25-.757.25-.373 0-.623-.178-.623-.552 0-.125.018-.213.08-.356l.455-1.096h-1.444zm7.057-1.924c.16-.062.462-.143.828-.143.27 0 .571.054.775.206.143.106.295.32.295.64 0 .365-.194.74-.48.971-.367.303-1.034.49-1.508.49-.168 0-.427-.027-.65-.17a.98.98 0 0 1-.428-.827c0-.17.045-.374.142-.571l.813-1.592a.98.98 0 0 0 .107-.366.261.261 0 0 0-.036-.142c-.017-.027-.063-.062-.135-.062-.097 0-.222.045-.382.186-.081.072-.152.152-.224.241-.07.09-.177.24-.231.33-.017.035-.044.088-.089.088-.01 0-.025 0-.036-.01-.017-.007-.036-.017-.036-.052 0-.053.028-.098.072-.161.115-.177.214-.311.357-.463.132-.141.248-.24.428-.32a.903.903 0 0 1 .418-.097c.125 0 .285.017.418.133.09.08.172.205.172.4 0 .152-.057.268-.082.321zm-.393.802c-.08.168-.134.392-.134.596 0 .17.045.347.143.454.09.097.232.16.41.16.26 0 .564-.133.811-.444.233-.295.339-.632.339-.918 0-.098-.008-.294-.152-.428-.097-.097-.276-.159-.524-.159-.27 0-.491.071-.59.106zm3.44.329c-.143.312-.204.454-.204.579 0 .159.107.249.259.249.196 0 .48-.143.712-.41.046-.053.079-.106.124-.106.028 0 .053.025.053.053 0 .027-.016.133-.256.32-.144.116-.41.32-.812.32-.365 0-.704-.195-.704-.596 0-.203.08-.382.222-.694l1.017-2.261c.07-.17.08-.178.097-.231.018-.054.036-.063.08-.063.07 0 .108.018.197.018h.143c.23 0 .249-.044.294-.044.025 0 .044.026.044.044 0 .027-.019.035-.116.258zm6.79-.303c-.105.24-.186.41-.233.543-.026.08-.07.222-.07.348 0 .071.018.133.055.169.053.053.125.053.16.053.197 0 .365-.107.49-.205.133-.107.232-.213.302-.302.02-.027.052-.072.09-.072.017 0 .053.018.053.063 0 .08-.15.24-.213.294-.099.079-.222.178-.312.23-.18.107-.393.188-.625.188a.848.848 0 0 1-.472-.125.452.452 0 0 1-.214-.383c0-.106.045-.222.072-.284l.899-2.03.17-.356h-.01l-2.931 2.929c-.142.142-.187.177-.223.177-.053 0-.09-.026-.238-.026-.128 0-.118.026-.189.026-.064 0-.09-.044-.09-.088 0-.01 0-.053.073-.16.034-.062.062-.098.097-.17l1.14-2.643c.045-.098.108-.277.108-.375 0-.044-.008-.097-.038-.133-.034-.054-.096-.062-.131-.062-.258 0-.483.258-.606.427-.16.213-.215.293-.233.33-.016.035-.045.088-.088.088-.028 0-.071-.01-.071-.062 0-.053.028-.098.07-.161.116-.177.214-.311.357-.463.134-.141.249-.24.43-.32a.886.886 0 0 1 .408-.097c.123 0 .32.035.426.133.091.08.154.23.154.4 0 .107-.029.242-.063.321l-.9 2.03-.187.365h.007l2.924-2.929c.143-.142.178-.187.205-.187.062 0 .009.018.115.018h.072c.082 0 .16-.009.213-.018.045-.009.082-.027.1-.027.034 0 .043.027.026.08zm-.195-3.846c0 .26-.17.32-.285.32a.288.288 0 0 1-.09-.017c-.035-.017-.063-.035-.098-.035-.052 0-.062.045-.062.071 0 .062.09.178.312.178.553 0 .89-.348 1.015-.561.07-.116.16-.356.187-.498.01-.055.038-.188.116-.188.027 0 .071.01.071.089 0 .17-.142.561-.258.73-.267.4-.748.58-1.14.58-.17 0-.303-.037-.427-.161a.57.57 0 0 1-.17-.419c0-.133.045-.24.125-.32a.461.461 0 0 1 .338-.133c.25 0 .366.16.366.364zm8.153 4.808c-.09.213-.125.195-.206.204l-.4.045c-.143.017-.106.036-.17.036-.089 0-.052-.09-.045-.108l1.24-2.963c.106-.25.106-.349.106-.375a.24.24 0 0 0-.035-.133c-.036-.054-.097-.062-.134-.062-.258 0-.48.258-.607.427a2.998 2.998 0 0 0-.23.33c-.019.035-.044.088-.09.088-.026 0-.07-.01-.07-.062 0-.053.026-.098.07-.161.117-.177.214-.311.358-.463.134-.141.249-.24.427-.32a.979.979 0 0 1 .446-.097c.106 0 .276.017.401.133.09.08.15.223.15.4 0 .17-.053.303-.06.321l-.368.899h.27c.203 0 .426-.08.578-.195.134-.098.285-.285.57-.704.258-.375.356-.525.472-.64a.802.802 0 0 1 .624-.277c.374 0 .508.258.508.48 0 .205-.124.392-.367.392a.257.257 0 0 1-.275-.258c0-.08.028-.134.054-.177a.145.145 0 0 0 .027-.09c0-.07-.035-.133-.143-.133-.206 0-.356.205-.472.373l-.196.277-.251.356c-.116.16-.214.303-.355.435a.923.923 0 0 1-.446.25v.009c.206 0 .437.063.597.17.204.142.267.328.267.56 0 .116-.026.25-.063.453-.035.206-.06.348-.06.49 0 .09.017.224.168.224.187 0 .41-.197.518-.33.124-.16.258-.41.33-.624.008-.026.034-.124.106-.124.025 0 .07.027.07.08 0 .125-.248.624-.462.837-.206.204-.509.357-.794.357-.364 0-.658-.214-.658-.66 0-.187.035-.33.062-.499.017-.097.054-.329.054-.444 0-.081-.01-.223-.135-.32-.133-.107-.402-.107-.445-.107h-.223zm9.428-2.146c0 .81-.428 1.424-.954 1.879-.623.542-1.192.659-1.55.659-.812 0-1.273-.642-1.273-1.354 0-.623.346-1.424 1.075-2.003.456-.356 1.008-.596 1.482-.596.765 0 1.22.614 1.22 1.415zm-2.577-.195c-.275.533-.515 1.3-.515 1.896 0 .587.347.676.597.676.596 0 .971-.436 1.248-.961.31-.588.56-1.407.56-1.994 0-.152-.016-.677-.605-.677-.67 0-1.078.659-1.285 1.06zm6.739 2.243c-.125.16-.286.285-.429.364a1.056 1.056 0 0 1-.445.126c-.214 0-.508-.117-.722-.437a1.753 1.753 0 0 1-.267-.935c0-.445.152-.934.427-1.38.268-.436.588-.72.9-.916.276-.17.643-.303.936-.303.293 0 .552.16.65.444h.01l.115-.355a7.72 7.72 0 0 1 .535-1.255c.134-.259.294-.517.482-.721.382-.419.855-.579 1.211-.579.117 0 .26.026.366.08.23.107.34.32.34.507 0 .053-.01.151-.092.232a.334.334 0 0 1-.212.099.27.27 0 0 1-.278-.258c0-.064.028-.09.055-.125.035-.054.08-.134.08-.187a.253.253 0 0 0-.08-.161.533.533 0 0 0-.26-.063c-.142 0-.417.054-.667.446-.125.195-.223.427-.348.738a8.55 8.55 0 0 0-.249.66c-.072.204-.135.418-.214.623l-.143.346h.009c.116-.142.276-.275.42-.355a.833.833 0 0 1 .408-.116c.277 0 .561.125.776.418.144.196.276.49.276.9 0 .49-.169 1.006-.445 1.432a3.037 3.037 0 0 1-.926.908c-.26.16-.599.313-.9.313-.428 0-.607-.268-.67-.463h-.009l-.427 1.032c-.18.436-.41.766-.784 1.103-.472.428-.865.535-1.14.535a.995.995 0 0 1-.446-.116.442.442 0 0 1-.224-.382c0-.285.224-.374.356-.374.126 0 .269.07.269.214 0 .088-.044.133-.07.16a.194.194 0 0 0-.065.15c0 .09.054.197.251.197.258 0 .518-.16.686-.347.143-.153.383-.597.489-.873l.348-.935zm-.429.187a1.75 1.75 0 0 0 .429-.463c.23-.365.373-.855.596-1.45.116-.313.303-.74.303-1.034 0-.25-.116-.561-.507-.561-.223 0-.411.098-.588.267-.393.366-.67 1.096-.723 1.238-.143.382-.32 1.015-.32 1.477 0 .312.071.445.088.481a.334.334 0 0 0 .313.187c.133 0 .293-.072.41-.142zm2.567-3.374a1.908 1.908 0 0 0-.375.392c-.124.169-.276.471-.65 1.522-.277.791-.311.997-.311 1.104 0 .356.293.498.506.498.198 0 .42-.142.562-.276.294-.266.598-.81.776-1.255.188-.481.32-1.041.32-1.486 0-.206-.027-.349-.088-.454-.082-.143-.188-.18-.348-.18a.59.59 0 0 0-.392.135zm4.438 2.644c0 .196.027.8.694.8.294 0 .481-.106.642-.194.169-.1.232-.144.428-.375.035-.043.097-.125.151-.125.017 0 .044.01.044.054 0 .134-.293.4-.418.498a1.532 1.532 0 0 1-.989.348c-.75 0-1.337-.472-1.337-1.202 0-.436.197-1.148 1.086-1.923.652-.57 1.23-.82 1.747-.82.536 0 .741.295.741.606 0 .135-.036.436-.384.704a1.793 1.793 0 0 1-.463.248 2.595 2.595 0 0 1-.625.143 4.123 4.123 0 0 1-.987-.026c-.206.426-.33.756-.33 1.264zm1.889-1.914c.249-.284.267-.463.267-.57 0-.107-.037-.276-.276-.276-.278 0-.518.178-.563.214-.338.258-.694.765-.916 1.165.623.054 1.123-.105 1.488-.533z"/></g></g></svg>