<svg xmlns="http://www.w3.org/2000/svg" width="40" height="40" viewBox="0 0 40 40"><defs><clipPath id="drrra"><path fill="#fff" d="M20.086-.002c11.047 0 20 8.955 20 20 0 11.047-8.953 20.002-20 20.002-11.044 0-20-8.955-20-20.001 0-11.046 8.956-20 20-20z"/></clipPath></defs><g><g><path fill="#512a18" d="M20.086-.002c11.047 0 20 8.955 20 20 0 11.047-8.953 20.002-20 20.002-11.044 0-20-8.955-20-20.001 0-11.046 8.956-20 20-20z"/><path fill="none" stroke="#cfc0b0" stroke-miterlimit="20" stroke-width="2" d="M20.086-.002c11.047 0 20 8.955 20 20 0 11.047-8.953 20.002-20 20.002-11.044 0-20-8.955-20-20.001 0-11.046 8.956-20 20-20z" clip-path="url(&quot;#drrra&quot;)"/></g><g><path fill="#9c897b" d="M29.499 14.75a7.734 7.734 0 0 1-2.218.609 3.877 3.877 0 0 0 1.698-2.137 7.756 7.756 0 0 1-2.453.937 3.862 3.862 0 0 0-6.58 3.522 10.971 10.971 0 0 1-7.962-4.035 3.851 3.851 0 0 0-.522 1.942 3.86 3.86 0 0 0 1.718 3.214 3.85 3.85 0 0 1-1.749-.484l-.001.05a3.866 3.866 0 0 0 3.099 3.786 3.91 3.91 0 0 1-1.745.065 3.867 3.867 0 0 0 3.608 2.683 7.748 7.748 0 0 1-5.718 1.598 10.934 10.934 0 0 0 5.92 1.735c7.104 0 10.989-5.884 10.989-10.986 0-.168-.005-.335-.012-.5a7.831 7.831 0 0 0 1.928-2z"/></g></g></svg>